<svg width="17" height="11" viewBox="0 0 17 11" fill="none" xmlns="http://www.w3.org/2000/svg">
<path fill-rule="evenodd" clip-rule="evenodd" d="M0.468703 1.1688C0.768747 0.868848 1.17564 0.700343 1.5999 0.700343C2.02417 0.700343 2.43106 0.868848 2.7311 1.1688L7.9999 6.4376L13.2687 1.1688C13.4163 1.01598 13.5928 0.894093 13.7881 0.810239C13.9833 0.726384 14.1932 0.682246 14.4057 0.6804C14.6181 0.678554 14.8288 0.719037 15.0254 0.799486C15.2221 0.879935 15.4007 0.99874 15.5509 1.14897C15.7012 1.2992 15.82 1.47784 15.9004 1.67447C15.9809 1.87111 16.0214 2.0818 16.0195 2.29424C16.0177 2.50669 15.9735 2.71664 15.8897 2.91185C15.8058 3.10705 15.6839 3.28361 15.5311 3.4312L9.1311 9.8312C8.83106 10.1312 8.42416 10.2997 7.9999 10.2997C7.57564 10.2997 7.16875 10.1312 6.8687 9.8312L0.468703 3.4312C0.168749 3.13116 0.000244141 2.72426 0.000244141 2.3C0.000244141 1.87574 0.168749 1.46885 0.468703 1.1688Z" fill="#726D6D"/>
</svg>
