<svg width="643" height="691" viewBox="0 0 643 691" fill="none" xmlns="http://www.w3.org/2000/svg">
<path fill-rule="evenodd" clip-rule="evenodd" d="M290.219 155.65C351.416 114.733 369.684 -4.91902 443.124 0.156672C500.988 4.1558 441.34 122.968 477.18 168.571C512.621 213.668 601.152 191.082 631.448 239.785C658.737 283.653 630.861 342.53 616.214 392.074C602.071 439.911 578.092 483.446 547.713 523.012C516.997 563.016 480.552 597.412 437.894 624.319C392.263 653.1 339.275 707.879 290.219 685.428C230.04 657.885 243.844 559.163 195.884 513.557C166.682 485.789 113.315 507.896 79.8765 485.41C43.9733 461.267 11.1142 425.742 2.30051 383.383C-6.51184 341.031 11.3555 296.502 32.7461 258.901C52.0943 224.891 84.0446 199.891 117.874 180.227C146.27 163.722 179.282 159.461 211.797 154.825C238.006 151.087 268.211 170.365 290.219 155.65Z" fill="#D8CCED"/>
</svg>
